# xmcd
#
# Track frame offsets:
#	150
#	15544
#	32140
#	49771
#	66260
#	78539
#	97038
#	113154
#	123729
#	135553
#	149220
#	162893
#	177199
#	186170
#
# Disc length: 2674 seconds
#
# Revision: 0
# Processed by: cddbd v1.5.2PL0 Copyright (c) Steve Scherf et al.
# Submitted via: dBpowerAMP V4.0
#
DISCID=cb0a700e
DTITLE=Various Artist - Sveriges Bästa Dansband 06*12
DYEAR=2006
DGENRE=Dance Hall
TTITLE0=Surround - I en annan värld
TTITLE1=Lotta Engbergs - Tusen skäl att stanna
TTITLE2=Hedins - Bara för dej
TTITLE3=Arvingarna - Hela världen till dig
TTITLE4=Wahlströms - Everytime yoy walk away
TTITLE5=Svänzons - Guardian
TTITLE6=Matz Bladhs - Jag trodde änglarna fanns
TTITLE7=Hans Martin - Det känns så del (It hurts so much)
TTITLE8=Grönwalls - Börja var enkelt
TTITLE9=Sannex - Twist and shout
TTITLE10=Niklas Andersson - Tro på mig
TTITLE11=Chiquita - Då föll en stjärna
TTITLE12=The Husbands - Someboddy help me
TTITLE13=BlackJack
EXTD=
EXTT0=
EXTT1=
EXTT2=
EXTT3=
EXTT4=
EXTT5=
EXTT6=
EXTT7=
EXTT8=
EXTT9=
EXTT10=
EXTT11=
EXTT12=
EXTT13=
PLAYORDER=
